<?xml version="1.0" encoding="UTF-8" standalone="no"?>
<!-- Created with Inkscape (http://www.inkscape.org/) -->

<svg
   version="1.1"
   id="svg1380"
   width="720"
   height="699"
   viewBox="0 0 720 699"
   sodipodi:docname="Logo_of_the_Grand_Egyptian_Museum.svg"
   inkscape:version="1.2.2 (b0a8486541, 2022-12-01)"
   xmlns:inkscape="http://www.inkscape.org/namespaces/inkscape"
   xmlns:sodipodi="http://sodipodi.sourceforge.net/DTD/sodipodi-0.dtd"
   xmlns="http://www.w3.org/2000/svg"
   xmlns:svg="http://www.w3.org/2000/svg">
  <defs
     id="defs1384" />
  <sodipodi:namedview
     id="namedview1382"
     pagecolor="#505050"
     bordercolor="#eeeeee"
     borderopacity="1"
     inkscape:showpageshadow="0"
     inkscape:pageopacity="0"
     inkscape:pagecheckerboard="0"
     inkscape:deskcolor="#505050"
     showgrid="false"
     inkscape:zoom="1.7622032"
     inkscape:cx="454.82838"
     inkscape:cy="318.06775"
     inkscape:window-width="952"
     inkscape:window-height="1072"
     inkscape:window-x="0"
     inkscape:window-y="0"
     inkscape:window-maximized="1"
     inkscape:current-layer="svg1380" />
  <path
     id="path1390"
     style="fill:#ee7103;fill-opacity:1"
     d="M 331.97108,0.06706051 198.57053,200.8347 c 1.19129,1.18769 44.16109,-0.16749 50.78336,-1.49811 6.61427,-1.329 6.61405,-1.32836 3.65039,-6.92187 -5.35902,-10.11443 -2.50054,-20.17448 8.38282,-29.49023 14.39091,-12.31809 24.94533,2.51721 15.84179,22.26757 -3.98614,8.64809 -3.98958,8.64446 6.84375,8.56446 10.3755,-0.0766 17.81115,-2.22352 31.8711,-9.20703 16.6165,-8.25336 16.47762,-8.08542 8.54297,-10.41797 -20.01407,-5.88356 -37.24269,-14.88708 -35.68164,-18.64649 3.50892,-8.45044 3.44032,-8.45631 26.43945,2.06641 16.09577,7.36424 24.42385,9.25767 40.74414,9.26367 8.38768,0.003 15.25019,0.35694 15.25,0.78711 -0.003,7.09298 -5.02398,9.97235 -18.37305,10.53125 -10.87346,0.45526 -10.87378,0.45377 -10.30273,5.27539 1.87981,15.87207 19.77796,18.39758 26.2168,3.69922 5.78861,-13.21405 7.32453,-13.89537 11.66601,-5.17188 5.83825,11.73094 10.97757,14.43018 19.43359,10.20704 4.80496,-2.39971 5.06758,-3.19256 2.83204,-8.54297 -5.87469,-14.0601 -13.46117,-54.46723 -11.08789,-59.05664 4.0357,-7.80421 7.61523,-5.10358 7.61523,5.74609 0,2.90552 7.59425,32.57252 10.69531,41.78125 3.08629,9.16488 3.67468,9.5608 7.80469,5.25 1.5808,-1.65 3.4654,-3 4.1875,-3 0.7221,0 1.3125,-0.45 1.3125,-1 0,-1.9858 10.4663,-1.14574 12.79883,1.02734 7.97797,7.43261 -0.17849,32.7718 -11.46094,35.60352 -5.68891,1.42782 -12.52023,-3.64334 -15.86328,-11.77344 -1.90861,-4.64163 -1.90875,-4.64065 -6.94141,-0.44336 -12.91565,10.77181 -20.80943,9.77588 -27.13281,-3.42383 -2.31639,-4.83532 -2.6078,-4.87439 -4.64258,-0.60742 -10.29141,21.58132 -32.62431,18.2612 -34.52343,-5.13281 -0.54329,-6.6923 -0.72904,-6.97789 -3.15626,-4.89453 -0.8683,0.74529 -4.03698,2.65779 -7.04296,4.25 -3.006,1.5922 -5.96776,3.34453 -6.58204,3.89453 -1.02572,0.91838 -7.75631,4.11812 -16.45312,7.82227 -11.53821,4.91437 -26.33757,6.82658 -34.08984,4.40429 -4.17797,-1.30546 -4.80753,-1.27609 -7.00977,0.32813 -7.32096,5.33295 -13.72043,6.34706 -42.53516,6.74023 -4.0177,0.0548 -6.39545,0.11727 -9.32226,0.17383 l 0.0762,-0.0371 -17.9668,-0.24023 -52.75757,79.88407 c 3.8848,1.58559 98.60216,0.89608 111.10523,-0.85087 26.63915,-3.72206 34.1497,-10.94649 16.44141,-15.81641 -17.49577,-4.81147 -15.79657,-13.25172 5.55859,-27.60742 11.14868,-7.49453 27.5,-14.99652 27.5,-12.61719 0,1.83963 -4.33086,9.31641 -5.39648,9.31641 -1.53294,0 -26.4089,12.41049 -29.09961,14.51758 -2.40561,1.88381 -1.29247,2.8888 4.99609,4.51953 16.14353,4.18629 18.44961,13.01677 6.78711,25.98828 -11.93007,13.26911 -18.75607,14.37704 -88.97266,14.43164 -2.75308,0.002 -3.92046,0.0696 -6.41211,0.0742 l 0.16993,-0.0684 -50.39844,-0.69727 -56.671879,87.43923 c 0.005,0.87433 140.664529,0.80476 153.998049,-0.0762 30.72769,-2.03016 37.89498,-9.37651 23.34375,-23.92774 -3.64145,-3.64144 0.74566,-13.90083 5.45703,-12.76172 12.5988,3.04613 15.53785,2.82913 23.03125,-1.69336 4.24122,-2.55968 4.79771,-1.99816 9.1875,9.25391 7.93648,20.34307 20.26643,31.7045 25.53125,23.52734 1.27939,-1.98709 1.17735,-3.2553 -1.04687,-13.14257 -0.54628,-2.42832 -0.12505,-4.02603 1.91015,-7.25 3.27231,-5.18367 4.17127,-5.11438 8.95508,0.67968 12.07577,14.62595 15.12231,17.49879 22.08984,20.83789 11.17952,5.35764 19.4145,4.25749 21.08594,-2.8164 0.82326,-3.48423 -3.17417,-6.98673 -30.04492,-26.33008 -4.95,-3.56334 -9.66272,-7.04704 -10.47266,-7.74219 -0.91583,-0.78603 -5.39782,-1.39343 -11.85546,-1.60742 -10.38356,-0.34408 -10.38502,-0.34446 -9.80469,-3.24609 1.45814,-7.29072 2.18007,-7.61043 18.41797,-8.1836 19.48557,-0.68781 31.53055,-3.86445 53.58984,-14.13086 12.16301,-5.66068 13.23901,-5.39623 8.6543,2.12305 -2.80619,4.60238 -29.5936,17.22806 -40.125,18.91211 -2.12689,0.3401 -3.61494,1.02926 -3.30469,1.53125 1.918,3.10339 38.77422,28.97733 49.5332,34.77344 10.53536,5.67563 33.11028,13.08684 31.61524,10.3789 -7.57672,-13.72317 -26.74808,-62.83933 -26.74808,-68.52703 0,-2.74225 3.81174,-8.78711 5.54102,-8.78711 0.82848,0 2.20821,2.68336 3.45703,6.72656 5.54795,17.96216 16.01712,43.40106 25.47461,61.89649 10.06789,19.68915 3.5458,25.02796 -22.47266,18.39062 -8.95824,-2.28526 -22.33068,-8.09193 -30.06445,-13.05469 -5.53241,-3.55012 -6.54469,-3.64924 -7.28516,-0.70898 -4.60526,18.28644 -25.96506,19.55072 -42.91406,2.54102 -8.09161,-8.12061 -8.73319,-8.5991 -8.74219,-6.54102 -0.094,21.07225 -27.46565,21.71624 -32.70117,0.76953 -2.27898,-9.11789 -8.07934,-18.0303 -11.7168,-18.00391 -7.05063,0.0511 -10.0497,2.49358 -10.60351,8.63672 -1.21057,13.42837 -9.7053,22.60728 -24.97266,26.98438 -6.10545,1.75041 -11.50773,1.86239 -89,1.86328 -45.37495,5.3e-4 -83.054309,0.11303 -83.732419,0.25 L 3.8085646e-4,503.32097 63.078501,696.59831 C 619.7035,274.14324 338.84429,489.14726 454.01014,399.5905 c 1.3779,-1.08829 0.95893,-2.496 -3.61718,-12.13281 -13.40251,-28.22421 -21.2659,-64.19056 -15.64453,-71.56055 3.77828,-4.95358 4.105,-4.67283 5.42382,4.67383 2.91644,20.66897 9.73437,42.17348 19.59571,61.80859 5.4395,10.8307 1.82349,11.72678 25.45898,-6.30859 C 619.7035,274.14324 63.078501,696.59831 619.7035,274.14324 c -287.73242,-274.07617949 0,0 -287.73242,-274.07617949 z M 438.79139,117.03777 c 1.31806,0.34068 2.31154,3.06646 2.74805,8.11914 1.50359,17.40451 10.09814,44.22961 20.22266,63.11718 6.35949,11.86383 6.31782,11.61623 2.72656,16.34961 -4.08656,5.3862 -3.82424,5.59569 -11.05469,-8.87304 -12.38285,-24.7791 -22.75374,-63.66923 -19.33789,-72.51758 1.73398,-4.49166 3.37726,-6.536 4.69531,-6.19531 z m -173.46875,14.6914 c 4.51497,0.16503 8.23555,5.95171 4.52344,10.8418 -1.98827,2.61923 -8.08604,2.3324 -10.05078,-0.47266 -2.21148,-3.15733 -1.93579,-5.48803 0.99414,-8.41796 1.43552,-1.43552 3.02821,-2.00619 4.5332,-1.95118 z m 98.50586,12.4043 c 2.37708,0.2766 4.6952,1.82398 5.70899,4.5 0.94954,2.50644 -1.73789,7.30488 -4.50781,8.04688 -5.98751,1.6039 -10.16158,-3.80831 -7.26172,-9.41602 1.24774,-2.41286 3.68347,-3.40746 6.06054,-3.13086 z m 14.25586,0.1875 c 5.60564,0 8.22306,6.93124 4.1543,11 -2.65469,2.65469 -6.15392,2.53002 -8.82617,-0.31445 -4.0863,-4.34967 -1.31568,-10.68555 4.67187,-10.68555 z m -112.75781,26 c -8.44587,0 -9.94361,9.11259 -2.60937,15.87305 5.54936,5.11522 7.76063,5.24855 9.96484,0.60351 3.50354,-7.38315 -0.5557,-16.47656 -7.35547,-16.47656 z m 158.83789,13 c -9.30968,0 -11.27495,4.33853 -4.92773,10.87891 4.55437,4.69296 5.6894,4.94177 9.36718,2.04882 5.51211,-4.33581 2.56128,-12.92773 -4.43945,-12.92773 z m 18.16016,29.36914 c 1.16912,-0.001 1.88299,2.10574 1.89844,5.92383 0.0635,15.73795 11.69061,50.97675 23.40039,70.92578 2.97872,5.07463 2.89818,6.88162 -0.49805,11.19922 -3.63408,4.61998 -4.52044,3.71907 -12.25195,-12.45508 -10.07051,-21.06729 -14.68763,-37.17147 -18.14063,-63.2793 -0.64068,-4.84414 0.42229,-7.72545 4.2793,-11.5957 0.48176,-0.48342 0.92279,-0.7183 1.3125,-0.71875 z m -43.59961,9.64258 c 1.38077,-0.17796 2.12515,2.72451 3.0664,9.48828 1.12139,8.05826 9.48547,38.64613 11.04493,40.39062 0.19179,0.21455 2.80258,-1.3003 5.80078,-3.36523 13.27443,-9.14246 22.37407,-4.47123 21.38281,10.97461 -1.53038,23.84661 -20.92655,30.68158 -30.37695,10.70508 -2.72761,-5.76569 -2.4985,-5.73772 -7.86133,-0.92578 -22.26623,19.9789 -68.44525,17.63956 -70.02539,-3.54688 -0.26217,-3.51509 -0.71617,-4.27484 -2.89453,-4.85742 -3.76429,-1.00673 -5.75374,-3.42745 -6.32617,-7.69531 -0.50502,-3.76519 -0.50401,-3.76506 -4.9043,-2.74414 -4.40031,1.02092 -4.40173,1.02033 -3.79297,5.60937 1.6356,12.32974 -7.43446,28.74907 -19.19727,34.75 -6.03602,3.07935 -11.40234,3.88106 -11.40234,1.70313 0,-3.71073 4.24855,-9.49805 6.97266,-9.49805 13.03434,0 20.44369,-16.79133 12.85351,-29.12695 -5.33215,-8.66584 -1.52632,-14.14424 9.61133,-13.83594 12.14069,0.33606 13.07459,0.17736 15.94141,-2.68945 3.21229,-3.2123 4.23749,-2.55625 2.73632,1.75 -1.5963,4.57917 -1.38283,7.35145 0.71289,9.24804 4.11369,3.72284 5.62533,2.64794 17.9336,-12.75 15.14512,-18.9469 25.98025,-22.26541 33.33203,-10.20898 7.51944,12.33139 -2.56467,22.99126 -28.5918,30.22461 -17.33617,4.81799 -16.98797,4.55887 -12.25195,9.14258 9.87296,9.55546 33.87386,9.8944 52.25,0.73828 11.53914,-5.74951 11.0507,-4.74337 7.57617,-15.62696 -8.25929,-25.8713 -10.36756,-39.34677 -6.94336,-44.375 1.46781,-2.15538 2.52505,-3.37174 3.35352,-3.47851 z m -33.75977,27.45703 c -2.48688,0.22571 -5.07026,1.79302 -8.35547,4.75586 -3.56189,3.21239 -11.37109,13.06028 -11.37109,14.33984 0,0.35729 0.7875,0.3351 1.75,-0.0488 0.9625,-0.38392 6.47501,-2.18283 12.25,-3.99804 19.35187,-6.08273 19.83537,-6.50314 13.5,-11.75586 -2.89681,-2.40177 -5.28656,-3.51868 -7.77344,-3.29297 z m 58.35742,25.5 c -2.51951,-0.16502 -4.98485,0.50294 -6.67968,2.20508 -2.14467,2.15391 3.59946,10.47095 8.89062,12.87305 7.48216,3.39677 10.14271,0.48127 7.52735,-8.24805 -1.1888,-3.96783 -5.53909,-6.55505 -9.73829,-6.83008 z m -246.23828,38.03125 c 5.09612,0 8.03804,6.15147 4.9043,10.25391 -2.48619,3.2547 -8.57995,2.88444 -10.98438,-0.66797 -2.52791,-3.73488 1.18327,-9.58594 6.08008,-9.58594 z m 14.0293,0.17969 c 5.80555,-0.56146 9.35281,5.52135 5.875,10.07422 -2.97925,3.90018 -10.22176,2.6965 -11.37305,-1.89063 -1.03115,-4.10841 1.44268,-7.7914 5.49805,-8.18359 z m 77.84766,89.01172 c 5.62762,-0.55026 9.27655,5.59475 5.93359,9.99218 -3.00151,3.94828 -10.11975,2.79974 -11.2793,-1.82031 -1.01186,-4.03155 1.44688,-7.79065 5.34571,-8.17187 z m 14.96679,0.002 c 6.26817,-0.6144 9.31839,5.88866 4.85547,10.35156 -2.62059,2.6206 -3.75921,2.84647 -7.26562,1.43555 -5.32001,-2.14068 -3.46524,-11.2112 2.41015,-11.78711 z m 46.56446,5.21094 c 1.08128,0.002 2.18845,0.31125 3.21875,0.98632 3.25284,2.13135 3.92581,4.93647 2.05273,8.5586 -2.93023,5.6664 -11.52539,3.46717 -11.52539,-2.94927 0,-3.8555 3.01005,-6.60258 6.25391,-6.5957 z"
     inkscape:label="Polygon"
     sodipodi:nodetypes="ccsssssssssccssssssssssssssssssssssssssccccsssssssscccccssssssssssssssssssssscsssssssscsssssccccsssscccsssssssssssssssssssssssssssssccssssscsssssssssssssssssssssssssssssssssssssssssssssssssssssssssssssss" />
  <path
     style="fill:#7c6754;fill-opacity:1;stroke-width:0.27031"
     d="m 512.64509,686.25773 c -4.55477,-0.81605 -12.05602,-4.39021 -14.43383,-6.87735 l -0.94804,-0.99164 3.07894,-2.91261 3.07895,-2.91262 1.93211,1.3046 c 2.60476,1.75876 5.93467,3.37216 7.79616,3.77735 1.93216,0.42057 5.28848,-0.015 6.6705,-0.86556 1.59007,-0.97868 2.14116,-3.08157 1.13982,-4.34933 -0.95045,-1.20333 -2.1919,-1.74944 -8.09199,-3.55964 -6.40289,-1.96448 -7.56357,-2.47607 -9.91627,-4.37087 -2.91244,-2.34564 -4.46656,-6.67965 -3.93264,-10.96714 0.54956,-4.41306 4.7202,-9.0315 9.70471,-10.74668 1.57102,-0.54058 2.31697,-0.62132 5.60438,-0.60657 3.39144,0.0153 4.03542,0.0964 6.09452,0.76917 1.2663,0.41367 3.09465,1.16522 4.06301,1.6701 2.25173,1.17402 4.94949,3.30207 4.77155,3.7639 -0.28224,0.73243 -4.36821,6.39313 -4.70856,6.52319 -0.19592,0.0749 -1.4006,-0.56314 -2.67708,-1.41779 -3.20894,-2.14851 -4.41436,-2.55997 -7.47864,-2.55272 -3.92904,0.009 -5.84804,1.17863 -6.0925,3.7124 -0.10599,1.09846 -0.0238,1.42232 0.51293,2.02046 0.66735,0.74372 5.61614,2.81232 9.44235,3.9469 7.05024,2.09058 11.09345,5.38873 12.34478,10.06993 1.68978,6.32154 -2.32233,12.60496 -9.59902,15.03311 -1.9879,0.66335 -6.16084,0.93271 -8.35614,0.53941 z m -45.31274,-0.43107 c -1.79009,-0.33864 -4.96524,-1.57236 -6.801,-2.64255 -3.50229,-2.0417 -5.89477,-5.14643 -6.87444,-8.92092 -0.81968,-3.15809 -1.18235,-15.47363 -0.7725,-26.23342 l 0.17723,-4.65323 h 5.10386 5.10383 v 12.39534 c 0,8.15025 0.10431,12.88489 0.30457,13.82481 0.63365,2.97415 2.33919,5.27158 4.80745,6.47582 1.80847,0.88233 5.58754,0.88411 7.38238,0.003 1.73254,-0.85009 3.16204,-2.31149 3.99855,-4.08772 l 0.70716,-1.5016 0.0796,-13.42017 0.0795,-13.42019 h 5.14316 c 4.02639,0 5.17312,0.0779 5.28122,0.35832 0.0759,0.19707 0.0278,6.84311 -0.10698,14.76894 -0.23874,14.03957 -0.26111,14.45578 -0.86915,16.16402 -1.76225,4.951 -5.0753,8.29221 -10.16895,10.2554 -1.4402,0.55508 -2.1347,0.62609 -6.75182,0.69026 -2.83056,0.0394 -5.4512,0.0138 -5.82366,-0.0565 z m 124.91148,-0.10348 c -3.19655,-0.6681 -6.83981,-2.53632 -9.21266,-4.7242 -1.8374,-1.69408 -3.32989,-4.28694 -3.97089,-6.89853 -0.65058,-2.65069 -0.97535,-11.76468 -0.77521,-21.75468 l 0.17962,-8.96928 h 5.09623 5.09622 l 0.0797,13.28533 0.0797,13.28529 0.83938,1.76827 c 1.45162,3.05799 3.75784,4.72172 6.95763,5.01928 2.33736,0.21737 4.17484,-0.25981 5.99274,-1.55623 1.17209,-0.83582 1.67292,-1.43964 2.37967,-2.8689 l 0.89524,-1.81029 0.13541,-13.35905 0.13541,-13.35907 h 5.14654 5.14645 l -0.0768,13.88542 c -0.0838,15.16584 -0.16647,16.12815 -1.65034,19.22396 -1.80934,3.77468 -5.28732,6.83379 -9.5139,8.36796 -1.25361,0.45507 -2.30534,0.55424 -6.63625,0.62578 -2.8305,0.0467 -5.67629,-0.0258 -6.32386,-0.16106 z M 401.24066,664.55212 v -21.17558 h 5.78168 c 5.17169,0 5.82434,0.0498 6.18614,0.47206 0.22244,0.25964 1.46791,2.17151 2.76767,4.2486 1.90365,3.04212 5.52481,8.72768 6.95819,10.92498 0.22991,0.35246 0.30649,0.34304 0.59386,-0.073 0.18145,-0.26275 2.48229,-3.60094 5.11299,-7.41819 2.63069,-3.81726 4.98278,-7.21359 5.22685,-7.54741 0.43457,-0.59438 0.55565,-0.60694 5.84847,-0.60694 h 5.4047 v 21.17557 21.17556 h -5.14649 -5.14648 v -12.67839 c 0,-7.97773 -0.097,-12.67835 -0.26174,-12.67835 -0.14396,0 -2.05118,2.70089 -4.23826,6.00199 -4.22571,6.37813 -6.54141,9.64365 -6.83868,9.64365 -0.1,0 -2.55675,-3.39476 -5.45942,-7.5439 -3.34416,-4.7802 -5.42646,-7.52121 -5.68391,-7.48198 -0.35313,0.0537 -0.41552,1.67627 -0.47674,12.39943 l -0.0704,12.33753 h -5.27919 -5.27918 z m 137.87161,0.002 v -21.17765 h 15.98119 15.98115 v 3.90845 3.90844 l -11.30868,0.0703 -11.30873,0.0703 v 3.91141 3.91141 l 10.22523,0.0708 10.22526,0.0706 v 4.57931 4.57929 l -10.22526,0.0707 -10.22523,0.0707 -0.0749,3.9759 -0.075,3.97591 11.45135,0.0703 11.45137,0.0703 v 4.45091 4.45092 l -16.04886,0.0696 -16.04891,0.0696 v -21.1777 z m 85.59249,21.03853 c -7.9e-4,-0.0742 0,-9.57285 0,-21.10812 v -20.97326 h 5.74466 5.74475 l 4.94917,7.68794 c 2.72195,4.22837 5.00929,7.80935 5.08291,7.9577 0.16099,0.32431 -0.10538,0.68688 6.1371,-8.35422 l 5.03442,-7.29142 5.46172,-0.0729 5.46172,-0.073 v 21.18116 21.18115 h -5.14645 -5.14654 v -12.67835 c 0,-6.97309 -0.0777,-12.67836 -0.17327,-12.67836 -0.26868,0 -0.64868,0.53486 -4.88721,6.87869 -4.39891,6.58377 -5.9601,8.76695 -6.26919,8.76695 -0.11393,0 -2.5783,-3.39689 -5.47654,-7.54862 -3.36967,-4.82709 -5.41601,-7.5246 -5.6758,-7.48197 -0.35307,0.058 -0.4155,1.68348 -0.47675,12.40415 l -0.0705,12.33753 h -5.14377 c -2.82907,0 -5.14447,-0.0606 -5.14542,-0.13488 z m -11.37474,-93.45301 v -21.33882 l 4.9433,0.0735 4.9433,0.0735 0.0697,20.89065 c 0.0475,14.37153 -0.0198,20.97956 -0.21614,21.17557 -0.1713,0.1709 -2.17714,0.32081 -5.01271,0.37464 l -4.72716,0.0897 z M 401.37438,612.5572 c -0.0812,-0.33382 -0.11391,-9.83248 -0.0728,-21.10812 l 0.0746,-20.50119 h 16.11663 16.11662 l 0.0743,4.35248 0.0742,4.35247 -11.38299,0.19996 -11.38301,0.19995 v 3.33784 3.33782 h 10.15755 10.15753 v 4.58255 4.58253 l -10.22526,0.0707 -10.22524,0.0706 -0.075,3.97592 -0.0749,3.97591 11.43643,0.0703 11.43644,0.0703 0.11266,4.51835 0.11268,4.51835 h -16.14141 -16.14146 z m 58.10281,0.11225 c -6.48053,-1.35274 -9.40447,-3.25497 -12.67354,-8.24505 -2.93655,-4.48249 -4.40941,-11.27564 -3.57779,-16.50153 1.34096,-8.42628 6.72714,-15.16109 13.94896,-17.44153 1.60298,-0.50618 2.52414,-0.59973 5.95909,-0.60518 6.48361,-0.0106 10.2429,1.24938 13.97484,4.68286 l 1.97093,1.81329 -2.12171,2.81772 c -1.16696,1.54974 -2.21918,2.92671 -2.33829,3.05994 -0.12061,0.13489 -0.89959,-0.37947 -1.75821,-1.16099 -1.95899,-1.78301 -3.70042,-2.6585 -6.25703,-3.14565 -3.85563,-0.73466 -6.48787,-0.3468 -9.14594,1.34765 -3.84251,2.44953 -5.95576,6.71754 -5.95313,12.02323 0.004,8.56692 4.91971,13.60683 13.25375,13.58923 2.95379,-0.006 4.96683,-0.54427 6.96611,-1.86188 l 1.0426,-0.68713 -0.0768,-2.89002 -0.0767,-2.89004 -4.67967,-0.0738 -4.67966,-0.0738 0.0749,-3.97244 0.0749,-3.97246 9.4163,-0.071 9.4163,-0.071 -0.0713,8.9717 -0.0713,8.97171 -1.82289,1.3624 c -2.4595,1.83821 -5.50275,3.41688 -8.60551,4.46409 -2.30528,0.77807 -2.95404,0.87744 -6.22997,0.95436 -2.73788,0.0644 -4.23523,-0.035 -5.95908,-0.39474 z m 42.25535,-8.0383 v -8.53298 l -3.49723,-5.56157 c -1.92348,-3.05887 -5.44782,-8.65513 -7.83188,-12.43612 -2.38404,-3.781 -4.27698,-6.96745 -4.2065,-7.081 0.0704,-0.11356 2.43561,-0.20647 5.25587,-0.20647 h 5.12772 l 0.92013,1.4162 c 0.50607,0.77892 2.53795,4.14746 4.51528,7.48564 1.97733,3.33819 3.74905,6.29539 3.93718,6.57156 0.38875,0.57072 0.31605,0.67407 6.85332,-9.74115 1.97885,-3.15274 3.74017,-5.7375 3.91403,-5.74393 1.55694,-0.0576 9.52776,0.0588 9.6096,0.14031 0.0942,0.0938 -3.60336,6.35499 -12.31552,20.85393 l -2.80163,4.66252 v 8.35302 8.35303 h -4.74018 -4.74019 z m 31.75758,-12.65605 0.0693,-21.18906 10.15752,-0.0225 c 9.35999,-0.0207 10.36556,0.0222 12.80685,0.54575 2.98215,0.63962 4.26642,1.36628 6.19985,3.50787 2.66934,2.95671 4.01709,6.87142 4.01709,11.66825 0,5.93819 -2.27223,9.7033 -7.35182,12.1824 -3.52629,1.72098 -5.46472,2.04601 -12.35384,2.07145 l -4.4016,0.0163 v 6.20432 6.2043 h -4.60638 -4.6064 z m 19.30097,-0.11747 c 3.28291,-1.02655 4.67046,-3.01424 4.40481,-6.31005 -0.20656,-2.5628 -1.45446,-4.76075 -3.13561,-5.52284 -1.97496,-0.89527 -3.4044,-1.10546 -7.56688,-1.11255 l -3.85985,-0.006 v 6.69885 c 0,3.68437 0.0914,6.7935 0.20315,6.90917 0.11173,0.11569 1.97056,0.14879 4.13071,0.0736 2.99902,-0.10444 4.37586,-0.27689 5.82367,-0.7296 z m 30.13613,4.78417 -0.0697,-16.52232 -6.17425,-0.13488 -6.17427,-0.13489 -0.0126,-4.40373 c -0.008,-2.42206 0.0396,-4.45606 0.10394,-4.52 0.0642,-0.0638 7.99826,-0.14585 17.63118,-0.18204 l 17.51446,-0.0658 v 4.65323 4.65323 h -6.06555 c -5.28107,0 -6.08679,0.0552 -6.22995,0.42669 -0.0904,0.23469 -0.16442,7.70008 -0.16442,16.58977 v 16.16308 h -5.14439 -5.1444 z m 47.19656,16.14717 c 0,-0.94593 6.47954,-16.86762 11.09967,-27.27445 0.59003,-1.32901 4.51465,-10.39108 5.58095,-12.8864 l 0.78045,-1.82655 4.96873,0.0731 4.96866,0.0731 4.7392,11.05985 c 2.6066,6.08292 6.61979,15.447 8.91824,20.8091 2.29846,5.36208 4.17895,9.8838 4.17895,10.04827 0,0.20804 -1.51698,0.29903 -4.98545,0.29903 h -4.98554 l -0.79581,-1.68594 c -0.43768,-0.92728 -1.38514,-2.93183 -2.10544,-4.45455 l -1.30971,-2.76859 -8.79306,0.0712 c -7.48261,0.0604 -8.82718,0.13137 -9.02201,0.47569 -0.12599,0.22255 -0.94849,2.16477 -1.82789,4.31604 l -1.59891,3.91141 -4.90552,0.0735 c -4.11691,0.0618 -4.90551,0.0111 -4.90551,-0.31383 z m 26.65107,-18.19032 c 0.17644,-0.28431 -4.0594,-11.47548 -4.38425,-11.58333 -0.27533,-0.0915 -4.67027,11.2905 -4.48034,11.60335 0.16804,0.27698 8.69218,0.25772 8.86459,-0.02 z m 24.66756,18.2283 c -0.0713,-0.18545 -0.0977,-9.68411 -0.0594,-21.10811 l 0.0697,-20.77095 4.33386,-0.0669 c 2.38362,-0.0368 4.46196,0.0238 4.61852,0.13488 0.15658,0.11104 3.25796,3.96493 6.89204,8.5642 3.63407,4.59929 7.955,10.05835 9.60201,12.13125 l 2.99467,3.76892 0.1354,-12.26612 0.1354,-12.26613 4.53708,-0.0738 4.53701,-0.0738 v 21.18211 21.18206 h -4.19899 -4.19909 l -9.27659,-12.38604 c -5.10217,-6.81233 -9.36803,-12.39621 -9.47976,-12.40862 -0.11179,-0.0124 -0.20316,5.56134 -0.20316,12.38605 v 12.40861 h -5.155 c -3.87447,0 -5.1871,-0.0837 -5.28426,-0.33719 z M 422.09747,541.50984 c -4.93412,-0.70371 -8.07227,-1.60459 -10.34422,-2.96956 -2.90651,-1.74621 -5.91593,-5.53699 -7.52849,-9.48321 -1.90151,-4.65332 -2.34526,-10.65001 -1.12194,-15.16156 2.18814,-8.06977 7.33628,-13.55245 14.31066,-15.24059 1.58411,-0.38344 2.72212,-0.44579 6.09237,-0.33381 4.66895,0.15512 6.84244,0.63962 10.16549,2.26599 1.83161,0.89643 4.94905,3.47291 4.94905,4.09026 0,0.33321 -4.5799,5.98099 -4.85013,5.98099 -0.10725,0 -0.55013,-0.36914 -0.98418,-0.82032 -1.95799,-2.03529 -4.83328,-3.32339 -8.44946,-3.78524 -3.92222,-0.50092 -6.71345,0.45796 -9.43147,3.24007 -2.8045,2.87057 -4.03456,6.01233 -4.01989,10.26731 0.0235,6.80799 2.65361,11.01414 8.11909,12.98419 1.26068,0.4544 2.26908,0.58438 4.71833,0.60812 3.54221,0.0342 5.47501,-0.42795 7.30309,-1.74676 l 1.0938,-0.78907 v -2.82435 -2.82434 l -4.67246,-0.0737 -4.67248,-0.0737 -0.075,-3.97884 -0.0749,-3.97884 h 9.4876 9.4876 v 8.7571 8.75713 l -1.61951,1.34223 c -4.84307,4.01384 -12.63971,6.53849 -17.88295,5.79071 z m 52.7306,-0.81735 c -0.0983,-0.098 -2.02649,-2.95383 -4.2847,-6.34634 l -4.10585,-6.16822 -3.81875,0.0746 -3.81874,0.0746 -0.0727,6.13686 -0.0727,6.13686 h -4.87217 -4.87218 l 0.0693,-21.18655 0.0693,-21.18653 11.97453,0.0163 c 11.35751,0.0155 12.06933,0.0454 13.81425,0.58059 2.36774,0.72628 3.87127,1.61301 5.62169,3.31553 1.66825,1.62257 2.54347,2.94732 3.40004,5.1463 0.55839,1.43353 0.63289,2.09639 0.6518,5.79968 0.0197,3.86908 -0.0279,4.29188 -0.63804,5.66478 -1.41487,3.18356 -3.97279,6.28961 -6.13436,7.44889 -0.50928,0.27313 -0.92599,0.60074 -0.92599,0.72798 0,0.12723 1.84678,3.22539 4.10395,6.88478 2.25715,3.65938 4.15364,6.74447 4.21442,6.85574 0.13589,0.24881 -10.05345,0.27274 -10.30301,0.0241 z m -3.66521,-22.54274 c 0.72188,-0.42262 1.62454,-1.28416 2.11976,-2.02314 0.81887,-1.22202 0.85802,-1.39728 0.77425,-3.46643 -0.077,-1.90047 -0.18587,-2.30675 -0.85117,-3.17515 -1.47421,-1.92418 -1.49419,-1.92882 -8.29869,-1.92882 h -6.10698 l -0.0736,5.38743 c -0.0404,2.96309 -0.0104,5.55155 0.0668,5.75212 0.11323,0.29388 1.20593,0.34773 5.62642,0.27737 5.41334,-0.0862 5.50253,-0.097 6.74317,-0.82338 z m 52.78083,22.51956 c 0,-0.14273 -0.86782,-2.21941 -1.92848,-4.61488 l -1.92848,-4.3554 h -8.46109 -8.4611 l -1.96561,4.45092 -1.96561,4.45092 h -5.09565 -5.09565 l 0.62636,-1.55107 c 1.03265,-2.55724 17.23313,-40.64262 17.32877,-40.73785 0.19698,-0.19618 9.45538,-0.0757 9.63687,0.12536 0.10773,0.11938 0.56458,1.12747 1.01521,2.24021 0.45063,1.11272 2.42806,5.78618 4.3943,10.38546 1.96625,4.59928 4.03469,9.45481 4.59655,10.7901 0.56186,1.33527 2.5684,6.05282 4.45898,10.48344 1.89058,4.43063 3.3598,8.13298 3.26493,8.22746 -0.29109,0.2899 -10.4203,0.39228 -10.4203,0.1053 z M 517.172,523.08838 c 0,-0.19446 -4.18001,-11.72913 -5.01767,-13.84622 -0.32065,-0.81043 -0.53354,-0.53734 -1.26172,1.61851 -0.38837,1.14982 -1.46251,4.21487 -2.38697,6.81123 -0.92446,2.59637 -1.74378,4.9331 -1.82075,5.19274 -0.1299,0.43828 0.24039,0.47207 5.1736,0.47207 3.05626,0 5.31351,-0.10551 5.31351,-0.24833 z m 71.70968,17.6224 c -0.11037,-0.10991 -0.20061,-9.7086 -0.20061,-21.33045 v -21.13059 l 10.76695,0.001 c 9.86903,10e-4 10.95761,0.0473 13.05219,0.54745 5.55767,1.32681 10.65255,5.4995 13.40429,10.97809 1.77441,3.53272 2.13159,4.97579 2.2544,9.10863 0.18104,6.09135 -0.9599,10.20642 -3.94601,14.23195 -2.0144,2.71557 -6.25713,5.65113 -9.93486,6.87401 l -2.16693,0.72053 -11.51435,0.0991 c -6.33297,0.0545 -11.6047,0.009 -11.71507,-0.10076 z m 18.62468,-8.30987 c 5.25374,-0.80455 8.23414,-3.22329 9.67339,-7.85031 0.88439,-2.84313 0.8672,-7.7123 -0.0357,-10.08207 -0.78361,-2.05701 -2.87559,-4.44344 -4.80838,-5.4852 -2.51769,-1.35706 -3.89173,-1.58156 -9.18699,-1.50098 l -4.85187,0.0738 -0.0705,12.27373 c -0.0388,6.75056 -0.0119,12.42546 0.0594,12.61093 0.18081,0.46963 6.0597,0.44415 9.22091,-0.0399 z m -67.24455,-12.90817 0.0694,-21.10812 4.6537,-0.0736 4.65371,-0.0736 0.95101,1.15274 c 0.52304,0.63401 3.65856,4.67302 6.96781,8.97557 3.3092,4.30255 7.18635,9.34016 8.61586,11.19471 l 2.59899,3.37191 0.13547,-12.4086 c 0.0746,-6.82474 0.22685,-12.37827 0.33857,-12.34117 0.11171,0.037 2.4581,0.0674 5.2142,0.0674 h 5.01104 v 21.17555 21.17557 l -4.67248,-0.0149 -4.67241,-0.0152 -4.50976,-5.85207 c -11.39158,-14.78228 -14.66912,-18.91601 -14.8902,-18.77992 -0.13107,0.0807 -0.23798,5.65285 -0.23798,12.40427 v 12.25781 h -5.14813 -5.14813 z"
     id="path1540"
     inkscape:label="Latin Text" />
  <rect
     style="fill:#7e6448;fill-opacity:1"
     id="rect1564"
     width="3.0527041"
     height="188.25839"
     x="363.11951"
     y="498.18222"
     inkscape:label="Bar" />
</svg>
